<?xml version="1.0" encoding="UTF-8" standalone="no"?>
<svg
   xmlns:dc="http://purl.org/dc/elements/1.1/"
   xmlns:cc="http://creativecommons.org/ns#"
   xmlns:rdf="http://www.w3.org/1999/02/22-rdf-syntax-ns#"
   xmlns:svg="http://www.w3.org/2000/svg"
   xmlns="http://www.w3.org/2000/svg"
   xmlns:sodipodi="http://sodipodi.sourceforge.net/DTD/sodipodi-0.dtd"
   xmlns:inkscape="http://www.inkscape.org/namespaces/inkscape"
   sodipodi:docname="replay-logo.svg"
   inkscape:version="1.0 (4035a4f, 2020-05-01)"
   id="svg469"
   version="1.1"
   viewBox="0 0 200.28047 34.159565"
   height="34.159565mm"
   width="200.28047mm">
  <title
     id="title545">Replay logo</title>
  <defs
     id="defs463" />
  <sodipodi:namedview
     fit-margin-bottom="0"
     fit-margin-right="0"
     fit-margin-left="0"
     fit-margin-top="0"
     inkscape:guide-bbox="true"
     showguides="false"
     inkscape:pagecheckerboard="true"
     inkscape:window-maximized="0"
     inkscape:window-y="321"
     inkscape:window-x="1819"
     inkscape:window-height="998"
     inkscape:window-width="1585"
     showgrid="false"
     inkscape:document-rotation="0"
     inkscape:current-layer="layer1"
     inkscape:document-units="mm"
     inkscape:cy="84.938082"
     inkscape:cx="443.03034"
     inkscape:zoom="1.279708"
     inkscape:pageshadow="2"
     inkscape:pageopacity="1"
     borderopacity="1.0"
     bordercolor="#666666"
     pagecolor="#ffffff"
     id="base">
    <sodipodi:guide
       id="guide571"
       orientation="1,0"
       position="-35.01451,121.68623" />
    <sodipodi:guide
       id="guide573"
       orientation="0,-1"
       position="-45.163998,114.49962" />
    <sodipodi:guide
       id="guide660"
       orientation="0,-1"
       position="-42.180498,126.01519" />
    <sodipodi:guide
       id="guide662"
       orientation="0,-1"
       position="-42.180498,102.98638" />
  </sodipodi:namedview>
  <metadata
     id="metadata466">
    <rdf:RDF>
      <cc:Work
         rdf:about="">
        <dc:format>image/svg+xml</dc:format>
        <dc:type
           rdf:resource="http://purl.org/dc/dcmitype/StillImage" />
        <dc:title>Replay logo</dc:title>
        <dc:creator>
          <cc:Agent>
            <dc:title>Tor Erik Alræk</dc:title>
          </cc:Agent>
        </dc:creator>
        <cc:license
           rdf:resource="https://github.com/vimond/replay/blob/master/LICENSE" />
        <dc:publisher>
          <cc:Agent>
            <dc:title />
          </cc:Agent>
        </dc:publisher>
      </cc:Work>
    </rdf:RDF>
  </metadata>
  <g
     transform="translate(-11.641668)"
     id="layer1"
     inkscape:groupmode="layer"
     style="fill:#ffffff"
     inkscape:label="Layer 1">
    <g
       aria-label="REPLAY"
       id="text12-4-9"
       transform="matrix(1.2706466,0,0,1.3620198,-25.282348,-154.77546)">
      <path
         id="path43-5-1"
         sodipodi:type="inkscape:offset"
         inkscape:radius="0"
         inkscape:original="M 46.583984 113.63672 L 46.583984 138.7168 L 50.941406 138.7168 L 50.941406 129.05469 L 55.798828 129.05469 L 60.828125 138.7168 L 65.498047 138.7168 L 65.498047 138.49414 L 59.865234 128.03711 C 61.312175 127.42848 62.436378 126.56095 63.240234 125.43555 C 64.055574 124.29866 64.462891 122.89341 64.462891 121.2168 C 64.462891 118.7593 63.676777 116.88164 62.103516 115.58398 C 60.530254 114.28633 58.296226 113.63672 55.402344 113.63672 L 46.583984 113.63672 z M 69.162109 113.63672 L 69.162109 138.7168 L 85.560547 138.7168 L 85.560547 135.23828 L 73.519531 135.23828 L 73.519531 127.52148 L 83.820312 127.52148 L 83.820312 124.07617 L 73.519531 124.07617 L 73.519531 117.15039 L 85.439453 117.15039 L 85.439453 113.63672 L 69.162109 113.63672 z M 89.671875 113.63672 L 89.671875 138.7168 L 94.029297 138.7168 L 94.029297 129.39844 L 99.214844 129.39844 C 102.12021 129.39844 104.37666 128.71421 105.98438 127.34766 C 107.60357 125.9811 108.41406 124.07078 108.41406 121.61328 C 108.41406 119.21319 107.58724 117.28265 105.93359 115.82422 C 104.29143 114.3658 102.06959 113.63672 99.267578 113.63672 L 89.671875 113.63672 z M 112.73242 113.63672 L 112.73242 138.7168 L 128.47656 138.7168 L 128.47656 135.23828 L 117.08984 135.23828 L 117.08984 113.63672 L 112.73242 113.63672 z M 139.92578 113.63672 L 130.45312 138.7168 L 134.98242 138.7168 L 137.01562 132.87695 L 146.73047 132.87695 L 148.78125 138.7168 L 153.32812 138.7168 L 143.83594 113.63672 L 139.92578 113.63672 z M 151.73828 113.63672 L 160.16211 129.48438 L 160.16211 138.7168 L 164.53711 138.7168 L 164.53711 129.48438 L 172.94336 113.63672 L 168.11914 113.63672 L 162.34961 125.52344 L 156.57812 113.63672 L 151.73828 113.63672 z M 50.941406 117.15039 L 55.541016 117.15039 C 57.056858 117.17336 58.19325 117.55216 58.951172 118.28711 C 59.720577 119.02206 60.105469 120.06266 60.105469 121.40625 C 60.105469 122.69242 59.692058 123.70864 58.865234 124.45508 C 58.038411 125.19004 56.88983 125.55664 55.419922 125.55664 L 50.941406 125.55664 L 50.941406 117.15039 z M 94.029297 117.15039 L 99.386719 117.15039 C 100.83366 117.17336 101.97201 117.59286 102.79883 118.4082 C 103.62565 119.21206 104.03906 120.29141 104.03906 121.64648 C 104.03906 123.02452 103.62979 124.08145 102.81445 124.81641 C 101.99911 125.53988 100.81787 125.90234 99.267578 125.90234 L 94.029297 125.90234 L 94.029297 117.15039 z M 141.87305 118.95898 L 145.50781 129.36328 L 138.23828 129.36328 L 141.87305 118.95898 z "
         d="m 46.583984,113.63672 v 25.08008 h 4.357422 v -9.66211 h 4.857422 l 5.029297,9.66211 h 4.669922 v -0.22266 l -5.632813,-10.45703 c 1.446941,-0.60863 2.571144,-1.47616 3.375,-2.60156 0.81534,-1.13689 1.222657,-2.54214 1.222657,-4.21875 0,-2.4575 -0.786114,-4.33516 -2.359375,-5.63282 -1.573262,-1.29765 -3.80729,-1.94726 -6.701172,-1.94726 z m 22.578125,0 v 25.08008 h 16.398438 v -3.47852 H 73.519531 v -7.7168 h 10.300781 v -3.44531 H 73.519531 v -6.92578 h 11.919922 v -3.51367 z m 20.509766,0 v 25.08008 h 4.357422 v -9.31836 h 5.185547 c 2.905366,0 5.161816,-0.68423 6.769536,-2.05078 1.61919,-1.36656 2.42968,-3.27688 2.42968,-5.73438 0,-2.40009 -0.82682,-4.33063 -2.48047,-5.78906 -1.64216,-1.45842 -3.864,-2.1875 -6.666012,-2.1875 z m 23.060545,0 v 25.08008 h 15.74414 v -3.47852 h -11.38672 v -21.60156 z m 27.19336,0 -9.47266,25.08008 h 4.5293 l 2.0332,-5.83985 h 9.71485 l 2.05078,5.83985 h 4.54687 l -9.49218,-25.08008 z m 11.8125,0 8.42383,15.84766 v 9.23242 h 4.375 v -9.23242 l 8.40625,-15.84766 h -4.82422 l -5.76953,11.88672 -5.77149,-11.88672 z m -100.796874,3.51367 h 4.59961 c 1.515842,0.023 2.652234,0.40177 3.410156,1.13672 0.769405,0.73495 1.154297,1.77555 1.154297,3.11914 0,1.28617 -0.413411,2.30239 -1.240235,3.04883 -0.826823,0.73496 -1.975404,1.10156 -3.445312,1.10156 h -4.478516 z m 43.087891,0 h 5.357422 c 1.446941,0.023 2.585291,0.44247 3.412111,1.25781 0.82682,0.80386 1.24023,1.88321 1.24023,3.23828 0,1.37804 -0.40927,2.43497 -1.22461,3.16993 -0.81534,0.72347 -1.99658,1.08593 -3.546872,1.08593 h -5.238281 z m 47.843753,1.80859 3.63476,10.4043 h -7.26953 z" />
    </g>
    <path
       id="path215-9-0"
       d="m 22.326439,5.564227 -10.684771,11.23693 v 0.54915 l 10.684771,11.24275 h 6.097628 L 17.563981,17.092647 28.424067,5.564227 Z"
       sodipodi:nodetypes="cccccccc"
       style="opacity:0.5" />
    <path
       id="path252-4-0"
       sodipodi:type="inkscape:offset"
       inkscape:radius="0"
       inkscape:original="M 35.410156 252.71484 L 32.099609 257.24219 L 35.410156 261.76953 L 35.410156 252.71484 z "
       transform="matrix(1.6587418,0,0,1.2586803,-30.302208,-306.70592)"
       style="opacity:0.8"
       d="m 35.410156,252.71484 -3.310547,4.52735 3.310547,4.52734 z" />
    <path
       sodipodi:nodetypes="cccccccc"
       d="m 201.23737,5.551397 10.68477,11.23691 v 0.54915 l -10.68477,11.24275 h -6.09763 l 10.86009,-11.50041 -10.86009,-11.5284 z"
       style="opacity:0.5"
       id="path215-9-0-7" />
    <path
       transform="matrix(-1.6587418,0,0,1.2586803,253.86602,-306.71878)"
       inkscape:original="M 35.410156 252.71484 L 32.099609 257.24219 L 35.410156 261.76953 L 35.410156 252.71484 z "
       inkscape:radius="0"
       sodipodi:type="inkscape:offset"
       style="opacity:0.8"
       id="path252-4-0-0"
       d="m 35.410156,252.71484 -3.310547,4.52735 3.310547,4.52734 z" />
  </g>
</svg>
